<?xml version="1.0" standalone="no"?>
<!DOCTYPE svg PUBLIC "-//W3C//DTD SVG 20010904//EN"
 "http://www.w3.org/TR/2001/REC-SVG-20010904/DTD/svg10.dtd">
<svg version="1.0" xmlns="http://www.w3.org/2000/svg"
 width="182.000000pt" height="182.000000pt" viewBox="0 0 182.000000 182.000000"
 preserveAspectRatio="xMidYMid meet">
<metadata>
Created by potrace 1.11, written by Peter Selinger 2001-2013
</metadata>
<g transform="translate(0.000000,182.000000) scale(0.100000,-0.100000)"
fill="#000000" stroke="none">
<path d="M0 910 l0 -910 910 0 910 0 0 910 0 910 -910 0 -910 0 0 -910z m636
130 c29 -118 58 -244 65 -280 l12 -65 14 70 c11 54 95 365 129 478 5 15 15 17
62 15 l56 -3 44 -150 c24 -82 58 -208 77 -280 19 -72 34 -117 35 -100 0 17 29
143 63 280 l63 250 58 3 c52 3 57 1 52 -15 -2 -10 -39 -151 -81 -313 -42 -162
-81 -310 -86 -328 l-11 -33 -61 3 -62 3 -67 240 c-36 132 -70 254 -74 270 l-7
30 -9 -40 c-11 -48 -115 -426 -129 -472 -10 -33 -11 -33 -72 -33 l-62 0 -84
323 c-46 177 -86 332 -89 345 -4 22 -2 23 53 20 l58 -3 53 -215z"/>
</g>
</svg>
